<?xml version="1.0" encoding="UTF-8" standalone="no"?>
<!-- Created with Inkscape (http://www.inkscape.org/) -->

<svg
   xmlns:dc="http://purl.org/dc/elements/1.1/"
   xmlns:cc="http://creativecommons.org/ns#"
   xmlns:rdf="http://www.w3.org/1999/02/22-rdf-syntax-ns#"
   xmlns:svg="http://www.w3.org/2000/svg"
   xmlns="http://www.w3.org/2000/svg"
   xmlns:sodipodi="http://sodipodi.sourceforge.net/DTD/sodipodi-0.dtd"
   xmlns:inkscape="http://www.inkscape.org/namespaces/inkscape"
   width="52.000729mm"
   height="10.571124mm"
   viewBox="0 0 52.000727 10.571124"
   version="1.1"
   id="svg8"
   inkscape:version="0.92.3 (2405546, 2018-03-11)"
   sodipodi:docname="mh_main_logo.svg">
  <defs
     id="defs2" />
  <sodipodi:namedview
     id="base"
     pagecolor="#ffffff"
     bordercolor="#666666"
     borderopacity="1.0"
     inkscape:pageopacity="0.0"
     inkscape:pageshadow="2"
     inkscape:zoom="1.4"
     inkscape:cx="91.307756"
     inkscape:cy="64.149728"
     inkscape:document-units="mm"
     inkscape:current-layer="layer1"
     showgrid="false"
     inkscape:window-width="1600"
     inkscape:window-height="837"
     inkscape:window-x="-8"
     inkscape:window-y="-8"
     inkscape:window-maximized="1"
     fit-margin-top="0"
     fit-margin-left="0"
     fit-margin-right="0"
     fit-margin-bottom="0" />
  <metadata
     id="metadata5">
    <rdf:RDF>
      <cc:Work
         rdf:about="">
        <dc:format>image/svg+xml</dc:format>
        <dc:type
           rdf:resource="http://purl.org/dc/dcmitype/StillImage" />
        <dc:title></dc:title>
      </cc:Work>
    </rdf:RDF>
  </metadata>
  <g
     inkscape:label="Layer 1"
     inkscape:groupmode="layer"
     id="layer1"
     transform="translate(-70.198103,-213.31102)">
    <path
       d="m 70.198103,218.59505 v 1.53975 c 0,0.14377 0.117607,0.32919 0.261382,0.41214 l 4.902358,2.82855 c 0.143774,0.0829 0.261382,0.0331 0.261382,-0.11062 v -1.53977 c 0,-0.14377 -0.117608,-0.32917 -0.261382,-0.41211 l -4.902358,-2.82856 c -0.143775,-0.083 -0.261382,-0.0332 -0.261382,0.11062 z"
       style="fill:#00c2ff;fill-rule:evenodd;stroke-width:0.26458332"
       id="path817"
       inkscape:connector-curvature="0" />
    <path
       d="m 71.868126,218.8598 1.394036,0.80422 c 0.107924,0.0623 0.196109,-0.004 0.196109,-0.14819 v -1.53974 c 0,-0.14386 -0.08819,-0.31232 -0.196109,-0.37455 l -1.394036,-0.8043 c -0.107844,-0.0623 -0.196057,0.004 -0.196057,0.14827 v 1.53966 c -7.9e-5,0.14386 0.08821,0.3124 0.196057,0.37463 z"
       style="fill:#00c2ff;fill-rule:evenodd;stroke-width:0.26458332"
       id="path819"
       inkscape:connector-curvature="0" />
    <path
       d="m 79.726938,216.82026 -1.333447,0.77054 c -0.124565,0.072 -0.226404,0.26662 -0.226404,0.43275 v 5.66047 c 0,0.16613 0.101839,0.24308 0.226352,0.17116 l 1.333499,-0.77054 c 0.124487,-0.0719 0.226352,-0.26662 0.226352,-0.43276 v -5.66039 c 0,-0.16621 -0.101865,-0.24315 -0.226352,-0.17123 z"
       style="fill:#00c2ff;fill-rule:evenodd;stroke-width:0.26458332"
       id="path821"
       inkscape:connector-curvature="0" />
    <path
       d="m 76.197952,223.4219 1.394408,-0.80571 c 0.107764,-0.0623 0.195897,-0.23077 0.195897,-0.37454 v -1.53985 c 0,-0.14383 -0.08813,-0.21045 -0.195897,-0.14812 l -1.394328,0.80566 c -0.107844,0.0623 -0.195977,0.23077 -0.195977,0.37455 v 1.5399 c 0,0.14377 0.08813,0.21045 0.195897,0.14811 z"
       style="fill:#00c2ff;fill-rule:evenodd;stroke-width:0.26458332"
       id="path823"
       inkscape:connector-curvature="0" />
    <path
       d="m 78.846511,214.12979 -1.333579,-0.77026 c -0.124513,-0.0719 -0.343879,-0.0628 -0.487575,0.0202 l -4.902596,2.83168 c -0.143696,0.083 -0.159465,0.20978 -0.03495,0.28165 l 1.3335,0.77022 c 0.124487,0.0719 0.343879,0.0629 0.487654,-0.0202 l 4.902517,-2.8317 c 0.143775,-0.083 0.159517,-0.20971 0.03503,-0.28162 z"
       style="fill:#00c2ff;fill-rule:evenodd;stroke-width:0.26458332"
       id="path825"
       inkscape:connector-curvature="0" />
    <path
       d="m 76.387632,216.47556 1.39401,0.8052 c 0.107871,0.0623 0.297921,0.0544 0.422408,-0.0175 l 1.3335,-0.77017 c 0.124513,-0.0719 0.138165,-0.18172 0.03021,-0.24405 l -1.39401,-0.8051 c -0.107844,-0.0623 -0.297894,-0.0545 -0.422407,0.0175 l -1.3335,0.77017 c -0.124487,0.0719 -0.138139,0.18172 -0.03022,0.24398 z"
       style="fill:#00c2ff;fill-rule:evenodd;stroke-width:0.26458332"
       id="path827"
       inkscape:connector-curvature="0" />
    <path
       d="m 88.79204,222.13843 h -0.74168 v -2.66557 c 0,-0.51459 -0.07882,-0.88537 -0.237993,-1.11561 -0.157639,-0.23027 -0.424947,-0.34465 -0.798883,-0.34465 -0.316812,0 -0.58719,0.14528 -0.809704,0.43577 -0.220954,0.28898 -0.332264,0.63667 -0.332264,1.04301 v 2.64705 h -0.741654 v -2.75669 c 0,-0.91329 -0.352372,-1.36914 -1.055475,-1.36914 -0.326046,0 -0.594916,0.13756 -0.806556,0.41108 -0.21172,0.27345 -0.316812,0.62889 -0.316812,1.0677 v 2.64705 h -0.741733 v -4.63573 h 0.741733 v 0.72778 h 0.01852 c 0.329195,-0.55935 0.808223,-0.83902 1.440154,-0.83902 0.316812,0 0.591846,0.0881 0.828305,0.26422 0.234817,0.17618 0.397139,0.40634 0.483684,0.69225 0.344541,-0.63817 0.857541,-0.95647 1.540563,-0.95647 1.019863,0 1.529795,0.62887 1.529795,1.88828 z m 3.340867,0.11123 c -0.68453,0 -1.231583,-0.21629 -1.639517,-0.65055 -0.409496,-0.4326 -0.61349,-1.00748 -0.61349,-1.72448 0,-0.7788 0.213228,-1.38766 0.638175,-1.82647 0.424948,-0.43733 0.999834,-0.6567 1.724555,-0.6567 0.690668,0 1.229995,0.21323 1.617821,0.63966 0.387905,0.42497 0.581025,1.01529 0.581025,1.77091 0,0.74017 -0.208571,1.3335 -0.62738,1.77856 -0.417222,0.44661 -0.978138,0.66907 -1.681189,0.66907 z m 0.05564,-4.23706 c -0.47752,0 -0.854551,0.16224 -1.132734,0.48834 -0.276596,0.32602 -0.415634,0.77415 -0.415634,1.34745 0,0.55012 0.140626,0.98586 0.42029,1.30259 0.281252,0.31837 0.656775,0.47752 1.128078,0.47752 0.479028,0 0.848333,-0.15608 1.106408,-0.4682 0.257995,-0.31216 0.386239,-0.75563 0.386239,-1.33044 0,-0.58102 -0.128244,-1.02915 -0.386239,-1.34437 -0.258075,-0.31522 -0.62738,-0.47289 -1.106408,-0.47289 z m 7.398601,4.12583 H 98.84541 v -0.78187 h -0.01855 c -0.343032,0.59489 -0.874554,0.8931 -1.593135,0.8931 -0.582534,0 -1.049259,-0.20701 -1.398456,-0.62272 -0.347689,-0.41566 -0.522287,-0.98123 -0.522287,-1.69823 0,-0.76642 0.193199,-1.38141 0.579437,-1.84351 0.386318,-0.46199 0.900907,-0.69374 1.543738,-0.69374 0.638175,0 1.100244,0.24877 1.390703,0.7479 h 0.01855 v -2.86186 h 0.741738 z m -0.741738,-2.09534 v -0.68612 c 0,-0.37552 -0.123613,-0.69381 -0.370813,-0.9534 -0.248841,-0.26114 -0.562504,-0.39097 -0.942605,-0.39097 -0.452755,0 -0.809757,0.16687 -1.06934,0.49914 -0.259582,0.33374 -0.389413,0.79425 -0.389413,1.38141 0,0.53626 0.125174,0.95965 0.373962,1.27021 0.248787,0.31065 0.582533,0.46514 1.002903,0.46514 0.414073,0 0.749406,-0.14991 1.00748,-0.44968 0.258075,-0.29978 0.387826,-0.6784 0.387826,-1.13573 z m 5.98792,2.09534 h -0.74176 v -0.73403 h -0.0185 c -0.3075,0.56409 -0.78502,0.84526 -1.43092,0.84526 -1.10482,0 -1.65653,-0.65828 -1.65653,-1.97482 v -2.77214 h 0.74176 v 2.65625 c 0,0.97973 0.37394,1.46955 1.12183,1.46955 0.36158,0 0.65829,-0.13446 0.89162,-0.40177 0.23331,-0.26731 0.35076,-0.61658 0.35076,-1.04926 v -2.67477 h 0.74176 z m 5.80395,0 h -1.42785 v -2.63466 c 0,-0.6784 -0.2472,-1.01828 -0.74326,-1.01828 -0.25342,0 -0.45892,0.0958 -0.61656,0.28583 -0.156,0.1901 -0.23482,0.43116 -0.23482,0.72321 v 2.6439 h -1.42785 v -6.86093 h 1.42785 v 2.91436 h 0.0185 c 0.35076,-0.53311 0.82513,-0.8004 1.42626,-0.8004 1.05233,0 1.57771,0.63352 1.57771,1.90064 z m 5.53506,0 h -1.42785 v -0.7077 h -0.0232 c -0.35229,0.54549 -0.82516,0.81893 -1.41542,0.81893 -1.07399,0 -1.61173,-0.65055 -1.61173,-1.95008 v -2.79688 h 1.42785 v 2.6702 c 0,0.65513 0.25956,0.98274 0.77721,0.98274 0.25652,0 0.46051,-0.0896 0.615,-0.26887 0.15301,-0.17926 0.23024,-0.42339 0.23024,-0.73089 v -2.65318 h 1.42785 z m 2.65163,-0.53932 h -0.0185 v 0.53932 h -1.42785 v -6.86093 h 1.42785 v 2.92367 h 0.0185 c 0.35237,-0.53933 0.85606,-0.80971 1.50818,-0.80971 0.59798,0 1.05849,0.20551 1.38144,0.615 0.32295,0.41101 0.48524,0.97041 0.48524,1.68278 0,0.77258 -0.18856,1.39221 -0.56557,1.85893 -0.37862,0.46816 -0.88238,0.70149 -1.51434,0.70149 -0.57021,0 -1.0029,-0.21629 -1.29495,-0.65055 z m -0.037,-1.95472 v 0.47437 c 0,0.29978 0.0865,0.54706 0.25799,0.74332 0.17153,0.19619 0.39256,0.29356 0.66143,0.29356 0.32602,0 0.57788,-0.12668 0.7587,-0.37859 0.17925,-0.25186 0.26887,-0.6073 0.26887,-1.06929 0,-0.38325 -0.0819,-0.68302 -0.24726,-0.89932 -0.1638,-0.21481 -0.39864,-0.32295 -0.70305,-0.32295 -0.28749,0 -0.52538,0.10657 -0.71392,0.32136 -0.18857,0.21482 -0.28276,0.49297 -0.28276,0.83754 z"
       style="fill:#00c2ff;fill-rule:evenodd;stroke-width:0.26458332"
       id="path831"
       inkscape:connector-curvature="0" />
  </g>
</svg>
